<?xml version="1.0" encoding="UTF-8"?>
<svg width="24px" height="24px" viewBox="0 0 24 24" version="1.1" xmlns="http://www.w3.org/2000/svg" xmlns:xlink="http://www.w3.org/1999/xlink">
    <title>Group</title>
    <g id="Symbols" stroke="none" stroke-width="1" fill="none" fill-rule="evenodd">
        <g id="card/three-numbers" transform="translate(-363.000000, -399.000000)">
            <g id="card" transform="translate(25.000000, 28.000000)">
                <g id="Group" transform="translate(338.000000, 371.000000)">
                    <polygon id="Path" points="0 0 24 0 24 24 0 24"></polygon>
                    <path d="M19,14 L19,17 L22,17 L22,19 L18.999,19 L19,22 L17,22 L16.999,19 L14,19 L14,17 L17,17 L17,14 L19,14 Z M20.243,4.757 C22.505,7.025 22.583,10.637 20.479,12.992 L19.059,11.574 C20.39,10.05 20.32,7.66 18.827,6.17 C17.324,4.671 14.907,4.607 13.337,6.017 L12.002,7.215 L10.666,6.018 C9.091,4.606 6.675,4.668 5.172,6.172 C3.682,7.662 3.607,10.047 4.98,11.623 L13.412,20.069 L12,21.485 L3.52,12.993 C1.416,10.637 1.495,7.019 3.756,4.757 C6.021,2.493 9.644,2.417 12,4.529 C14.349,2.42 17.979,2.49 20.242,4.757 L20.243,4.757 Z" id="Shape" fill="#D8D8D8" fill-rule="nonzero"></path>
                </g>
            </g>
        </g>
    </g>
</svg>