<?xml version="1.0" encoding="UTF-8"?>
<svg width="24px" height="16px" viewBox="0 0 24 16" version="1.1" xmlns="http://www.w3.org/2000/svg" xmlns:xlink="http://www.w3.org/1999/xlink">
    <title>Group 5</title>
    <g id="Page-1" stroke="none" stroke-width="1" fill="none" fill-rule="evenodd">
        <g id="Desktop" transform="translate(-1300.000000, -150.000000)">
            <g id="Group-6" transform="translate(1157.000000, 85.000000)">
                <g id="Group-5" transform="translate(143.000000, 65.000000)">
                    <g id="united-states-copy" transform="translate(1.862372, 0.000000)" fill="#F5F5F5" fill-rule="nonzero">
                        <path d="M17.7165521,0 L1.43425318,0 C0.642113035,0 0,0.818818956 0,1.82895164 L0,14.1710484 C0,15.1811333 0.642113035,16 1.43425318,16 L17.7165521,16 C18.5086548,16 19.1508053,15.181181 19.1508053,14.1710484 L19.1508053,1.82895164 C19.1508053,0.818818956 18.5086922,0 17.7165521,0 Z" id="Path"></path>
                    </g>
                    <path d="M12.2301044,12.8225687 L12.123837,10.7558493 C12.1207078,10.6870069 12.1485182,10.6204367 12.1994615,10.5748253 C12.2504048,10.5292139 12.3189894,10.5094782 12.3859633,10.5211581 L14.4144902,10.8827741 L14.1405564,10.1164356 C14.1177688,10.0539175 14.1367593,9.98362426 14.1877863,9.94161458 L16.4099561,8.11677084 L15.9093185,7.87968484 C15.8393584,7.84615868 15.8049435,7.76506676 15.8290275,7.69049501 L16.2682662,6.3206648 L14.9883342,6.59606773 C14.9168404,6.61118434 14.8447435,6.57312505 14.8159448,6.50506502 L14.5679875,5.91354743 L13.5690738,7.00079029 C13.5221585,7.0509733 13.448222,7.06375328 13.3875628,7.0321646 C13.3269036,7.00057592 13.2940659,6.93219251 13.3069475,6.86428623 L13.7886931,4.34494815 L13.0164833,4.79756688 C12.9798367,4.819348 12.9359284,4.82475551 12.8952063,4.81250268 C12.8544841,4.80024986 12.8205892,4.77143227 12.8015869,4.73290706 L12.0175695,3.1714922 L11.2335522,4.73290706 C11.2145499,4.77143227 11.180655,4.80024986 11.1399328,4.81250268 C11.0992107,4.82475551 11.0553023,4.819348 11.0186558,4.79756688 L10.2464459,4.34494815 L10.7281916,6.86428623 C10.7410732,6.93219251 10.7082355,7.00057592 10.6475763,7.0321646 C10.5869171,7.06375328 10.5129806,7.0509733 10.4660653,7.00079029 L9.46715156,5.91354743 L9.21919426,6.50506502 C9.19039564,6.57312505 9.11829871,6.61118434 9.04680489,6.59606773 L7.7668729,6.3206648 L8.20611156,7.69049501 C8.23019559,7.76506676 8.19578071,7.84615868 8.12582062,7.87968484 L7.62518302,8.11677084 L9.84735276,9.94161458 C9.89837975,9.98362426 9.91737029,10.0539175 9.89458272,10.1164356 L9.62064894,10.8827741 L11.6491758,10.5211581 C11.7161497,10.5094782 11.7847343,10.5292139 11.8356776,10.5748253 C11.8866209,10.6204367 11.9144312,10.6870069 11.9113021,10.7558493 L11.8050347,12.8225687 L12.2301044,12.8225687 Z" id="Shape" fill="#F64B56" fill-rule="nonzero"></path>
                    <path d="M1.75695461,0 L5.97364568,0 L5.97364568,0 L5.97364568,16 L1.75695461,16 C0.786615374,16 -7.69346135e-16,15.2133846 0,14.2430454 L0,1.75695461 C-1.18832284e-16,0.786615374 0.786615374,1.78248426e-16 1.75695461,0 Z" id="Rectangle" fill="#F64B56"></path>
                    <path d="M19.7833089,0 L24,0 L24,0 L24,16 L19.7833089,16 C18.8129697,16 18.0263543,15.2133846 18.0263543,14.2430454 L18.0263543,1.75695461 C18.0263543,0.786615374 18.8129697,1.78248426e-16 19.7833089,0 Z" id="Rectangle" fill="#F64B56" transform="translate(21.013177, 8.000000) scale(-1, 1) translate(-21.013177, -8.000000) "></path>
                </g>
            </g>
        </g>
    </g>
</svg>