<?xml version="1.0" encoding="UTF-8"?>
<svg width="35px" height="35px" viewBox="0 0 35 35" version="1.1" xmlns="http://www.w3.org/2000/svg" xmlns:xlink="http://www.w3.org/1999/xlink">
    <title>cart</title>
    <g id="Symbols" stroke="none" stroke-width="1" fill="none" fill-rule="evenodd">
        <g id="cart">
            <polygon id="Path" points="0 0 35 0 35 35 0 35"></polygon>
            <path d="M5.83333333,23.3333333 L5.83333333,5.83333333 L2.91666667,5.83333333 L2.91666667,2.91666667 L7.29166667,2.91666667 C8.09708193,2.91666667 8.75,3.56958474 8.75,4.375 L8.75,21.875 L26.88875,21.875 L29.8054167,10.2083333 L11.6666667,10.2083333 L11.6666667,7.29166667 L31.675,7.29166667 C32.1241881,7.29167848 32.548308,7.49869179 32.8246545,7.85281412 C33.101001,8.20693645 33.1987361,8.66865069 33.0895833,9.104375 L29.44375,23.6877083 C29.2812055,24.3365661 28.6980741,24.7916667 28.0291667,24.7916667 L7.29166667,24.7916667 C6.48625141,24.7916667 5.83333333,24.1387486 5.83333333,23.3333333 L5.83333333,23.3333333 Z M8.75,33.5416667 C7.13916948,33.5416667 5.83333333,32.2358305 5.83333333,30.625 C5.83333333,29.0141695 7.13916948,27.7083333 8.75,27.7083333 C10.3608305,27.7083333 11.6666667,29.0141695 11.6666667,30.625 C11.6666667,32.2358305 10.3608305,33.5416667 8.75,33.5416667 Z M26.25,33.5416667 C24.6391695,33.5416667 23.3333333,32.2358305 23.3333333,30.625 C23.3333333,29.0141695 24.6391695,27.7083333 26.25,27.7083333 C27.8608305,27.7083333 29.1666667,29.0141695 29.1666667,30.625 C29.1666667,32.2358305 27.8608305,33.5416667 26.25,33.5416667 Z" id="Shape" fill="#2A8B83" fill-rule="nonzero"></path>
        </g>
    </g>
</svg>