<?xml version="1.0" encoding="UTF-8"?>
<svg width="24px" height="24px" viewBox="0 0 24 24" version="1.1" xmlns="http://www.w3.org/2000/svg" xmlns:xlink="http://www.w3.org/1999/xlink">
    <title>Shape</title>
    <g id="Page-1" stroke="none" stroke-width="1" fill="none" fill-rule="evenodd">
        <g id="Desktop" transform="translate(-942.000000, -2620.000000)" fill="#FFFFFF" fill-rule="nonzero">
            <g id="Group-8" transform="translate(386.000000, 2609.000000)">
                <g id="Group-7" transform="translate(556.000000, 11.000000)">
                    <path d="M13.2,21.5256 C18.2240484,20.8863316 21.8875979,16.4545819 21.5704555,11.3999656 C21.253313,6.34534917 17.064552,2.40627801 12,2.39999729 C6.92873363,2.39622358 2.72925448,6.33753028 2.41169173,11.3988454 C2.09412898,16.4601605 5.76803314,20.8954679 10.8,21.5256 L10.8,14.3999973 L8.4,14.3999973 L8.4,12 L10.8,12 L10.8,10.0152 C10.8,8.4108 10.968,7.8288 11.28,7.242 C11.5873374,6.66142284 12.0623524,6.18682597 12.6432,5.88 C13.1016,5.634 13.6716,5.4864 14.6676,5.4228 C15.0624,5.3976 15.5736,5.4288 16.2012,5.5188 L16.2012,7.7988 L15.6,7.7988 C14.4996,7.7988 14.0448,7.8504 13.7736,7.9956 C13.6117759,8.07882806 13.4800281,8.21057589 13.3968,8.3724 C13.2528,8.6436 13.2,8.9124 13.2,10.014 L13.2,12 L16.2,12 L15.6,14.3999973 L13.2,14.3999973 L13.2,21.5256 Z M12,24 C5.3724,24 0,18.6276 0,12 C0,5.3724 5.3724,0 12,0 C18.6276,0 24,5.3724 24,12 C24,18.6276 18.6276,24 12,24 Z" id="Shape"></path>
                </g>
            </g>
        </g>
    </g>
</svg>