<?xml version="1.0" encoding="UTF-8"?>
<svg width="24px" height="24px" viewBox="0 0 24 24" version="1.1" xmlns="http://www.w3.org/2000/svg" xmlns:xlink="http://www.w3.org/1999/xlink">
    <title>Shape</title>
    <g id="Page-1" stroke="none" stroke-width="1" fill="none" fill-rule="evenodd">
        <g id="Desktop" transform="translate(-986.000000, -2620.000000)" fill="#FFFFFF" fill-rule="nonzero">
            <g id="Group-8" transform="translate(386.000000, 2609.000000)">
                <g id="Group-7" transform="translate(556.000000, 11.000000)">
                    <path d="M56,8.4 C54.0117749,8.4 52.4,10.0117749 52.4,12 C52.4,13.9882251 54.0117749,15.6 56,15.6 C57.9882251,15.6 59.6,13.9882251 59.6,12 C59.6,10.0117749 57.9882251,8.4 56,8.4 Z M56,6 C59.3137085,6 62,8.6862915 62,12 C62,15.3137085 59.3137085,18 56,18 C52.6862915,18 50,15.3137085 50,12 C50,8.6862915 52.6862915,6 56,6 L56,6 Z M63.8,5.7 C63.8,6.52842712 63.1284271,7.2 62.3,7.2 C61.4715729,7.2 60.8,6.52842712 60.8,5.7 C60.8,4.87157288 61.4715729,4.2 62.3,4.2 C63.1284271,4.2 63.8,4.87157288 63.8,5.7 Z M56,2.4 C53.0312,2.4 52.5464,2.4084 51.1652,2.4696 C50.2244,2.514 49.5932,2.64 49.0076,2.868 C48.4868,3.0696 48.1112,3.3108 47.7116,3.7116 C47.3360082,4.07447892 47.0472238,4.51750049 46.8668,5.0076 C46.6388,5.5956 46.5128,6.2256 46.4696,7.1652 C46.4072,8.49 46.4,8.9532 46.4,12 C46.4,14.9688 46.4084,15.4536 46.4696,16.8348 C46.514,17.7744 46.64,18.4068 46.8668,18.9912 C47.0708,19.5132 47.3108,19.8888 47.7092,20.2872 C48.1136,20.6904 48.4892,20.9316 49.0052,21.1308 C49.598,21.36 50.2292,21.4872 51.1652,21.5304 C52.49,21.5928 52.9532,21.6 56,21.6 C58.9688,21.6 59.4536,21.5916 60.8348,21.5304 C61.7732,21.486 62.4056,21.36 62.9912,21.1332 C63.5108,20.9304 63.8888,20.6892 64.2872,20.2908 C64.6916,19.8864 64.9328,19.5108 65.132,18.9948 C65.36,18.4032 65.4872,17.7708 65.5304,16.8348 C65.5928,15.51 65.6,15.0468 65.6,12 C65.6,9.0312 65.5916,8.5464 65.5304,7.1652 C65.486,6.2268 65.36,5.5932 65.132,5.0076 C64.9511511,4.5180022 64.6628888,4.07515254 64.2884,3.7116 C63.9256804,3.3358153 63.4826117,3.04700017 62.9924,2.8668 C62.4044,2.6388 61.7732,2.5128 60.8348,2.4696 C59.51,2.4072 59.0468,2.4 56,2.4 Z M56,0 C59.2604,0 59.6672,0.012 60.9464,0.072 C62.2244,0.132 63.0944,0.3324 63.86,0.63 C64.652,0.9348 65.3192,1.3476 65.9864,2.0136 C66.5965924,2.61347515 67.0687443,3.33910675 67.37,4.14 C67.6664,4.9044 67.868,5.7756 67.928,7.0536 C67.9844,8.3328 68,8.7396 68,12 C68,15.2604 67.988,15.6672 67.928,16.9464 C67.868,18.2244 67.6664,19.0944 67.37,19.86 C67.0696119,20.6613318 66.5973448,21.3871404 65.9864,21.9864 C65.3863537,22.5963831 64.6607712,23.0685031 63.86,23.37 C63.0956,23.6664 62.2244,23.868 60.9464,23.928 C59.6672,23.9844 59.2604,24 56,24 C52.7396,24 52.3328,23.988 51.0536,23.928 C49.7756,23.868 48.9056,23.6664 48.14,23.37 C47.3387914,23.069368 46.6130327,22.5971334 46.0136,21.9864 C45.4032877,21.3866229 44.9311175,20.6609631 44.63,19.86 C44.3324,19.0956 44.132,18.2244 44.072,16.9464 C44.0156,15.6672 44,15.2604 44,12 C44,8.7396 44.012,8.3328 44.072,7.0536 C44.132,5.7744 44.3324,4.9056 44.63,4.14 C44.9302833,3.33861529 45.4025644,2.61278527 46.0136,2.0136 C46.6132052,1.40307747 47.3389143,0.930875089 48.14,0.63 C48.9056,0.3324 49.7744,0.132 51.0536,0.072 C52.3328,0.0156 52.7396,0 56,0 Z" id="Shape"></path>
                </g>
            </g>
        </g>
    </g>
</svg>