<?xml version="1.0" encoding="UTF-8"?>
<svg width="60px" height="60px" viewBox="0 0 60 60" version="1.1" xmlns="http://www.w3.org/2000/svg" xmlns:xlink="http://www.w3.org/1999/xlink">
    <title>Group</title>
    <g id="Artboard" stroke="none" stroke-width="1" fill="none" fill-rule="evenodd">
        <g id="Desktop" transform="translate(-742.000000, -2702.000000)">
            <g id="Group-9" transform="translate(288.000000, 2686.000000)">
                <g id="Group" transform="translate(454.000000, 16.000000)">
                    <polygon id="Path" points="0 0 60 0 60 60 0 60"></polygon>
                    <path d="M22.4125,45 C21.7980629,49.3120728 18.1056291,52.5156606 13.75,52.5156606 C9.39437093,52.5156606 5.70193709,49.3120728 5.0875,45 L2.5,45 L2.5,15 C2.5,13.6192881 3.61928813,12.5 5,12.5 L40,12.5 C41.3807119,12.5 42.5,13.6192881 42.5,15 L42.5,20 L50,20 L57.5,30.14 L57.5,45 L52.4125,45 C51.7980629,49.3120728 48.1056291,52.5156606 43.75,52.5156606 C39.3943709,52.5156606 35.7019371,49.3120728 35.0875,45 L22.4125,45 Z M37.5,17.5 L7.5,17.5 L7.5,37.625 C9.5020378,35.5811384 12.3768341,34.6451395 15.1984425,35.1184801 C18.020051,35.5918208 20.432029,37.4147057 21.6575,40 L35.8425,40 C36.2625,39.1175 36.825,38.315 37.5,37.625 L37.5,17.5 Z M42.5,32.5 L52.5,32.5 L52.5,31.7875 L47.48,25 L42.5,25 L42.5,32.5 Z M43.75,47.5 C45.8217582,47.5 47.50125,45.8205082 47.50125,43.74875 C47.50125,41.6769918 45.8217582,39.9975 43.75,39.9975 C41.6782418,39.9975 39.99875,41.6769918 39.99875,43.74875 C39.99875,45.8205082 41.6782418,47.5 43.75,47.5 Z M17.5,43.75 C17.5,42.410254 16.7852541,41.1722777 15.625,40.5024047 C14.464746,39.8325317 13.035254,39.8325317 11.875,40.5024047 C10.7147459,41.1722777 10,42.410254 10,43.75 C10,45.8210678 11.6789322,47.4999999 13.75,47.4999999 C15.8210678,47.4999999 17.5,45.8210678 17.5,43.75 L17.5,43.75 Z" id="Shape" fill="#FFFFFF" fill-rule="nonzero"></path>
                </g>
            </g>
        </g>
    </g>
</svg>