<?xml version="1.0" encoding="UTF-8"?>
<svg width="24px" height="20px" viewBox="0 0 24 20" version="1.1" xmlns="http://www.w3.org/2000/svg" xmlns:xlink="http://www.w3.org/1999/xlink">
    <title>Shape</title>
    <g id="Page-1" stroke="none" stroke-width="1" fill="none" fill-rule="evenodd">
        <g id="Desktop" transform="translate(-1031.000000, -2622.000000)" fill="#FFFFFF" fill-rule="nonzero">
            <g id="Group-8" transform="translate(386.000000, 2609.000000)">
                <g id="Group-7" transform="translate(556.000000, 11.000000)">
                    <path d="M105.636921,4.3946564 C103.745117,4.39434049 102.201731,5.9095194 102.167157,7.80100771 L102.133656,9.68544861 C102.129689,9.89009273 102.038556,10.0833124 101.883166,10.2165368 C101.727775,10.3497613 101.522906,10.4103203 101.320056,10.3829909 L99.4523655,10.1293391 C96.9948153,9.79432742 94.6401615,8.66246641 92.3812254,6.78041845 C91.6657361,10.7407355 93.0632135,13.4842422 96.4288848,15.6007983 L98.5191186,16.9145228 C98.7207771,17.0412521 98.8464532,17.2597463 98.8546034,17.4977799 C98.8627536,17.7358136 98.7523166,17.9623923 98.5597986,18.102618 L96.6550177,19.4941131 C97.7880752,19.5647048 98.8637021,19.5144531 99.756269,19.3373754 C105.401216,18.2103003 109.154544,13.9628303 109.154544,6.9562996 C109.154544,6.38438675 107.943716,4.3946564 105.636921,4.3946564 L105.636921,4.3946564 Z M99.7742161,7.75673831 C99.8169155,5.39871534 101.268408,3.29583909 103.458047,2.41972266 C105.647685,1.54360624 108.149132,2.06483488 109.80662,3.74258008 C110.657311,3.73659772 111.381176,3.9519624 113,2.97085666 C112.599182,4.93306814 112.401765,5.78495507 111.547485,6.9562996 C111.547485,16.0997265 105.927663,20.5458105 100.225285,21.6836539 C96.3152201,22.4637526 90.6295927,21.1823328 89,19.4809519 C89.8303505,19.4163425 93.204397,19.0538119 95.1546438,17.6264227 C93.5047111,16.5388311 86.937285,12.6742317 91.2529538,2.28408264 C93.2785782,4.64950465 95.3329179,6.25995382 97.4147764,7.1142337 C98.8002891,7.68255714 99.1400867,7.67059244 99.7754125,7.75793478 L99.7742161,7.75673831 Z" id="Shape"></path>
                </g>
            </g>
        </g>
    </g>
</svg>