<?xml version="1.0" encoding="UTF-8"?>
<svg width="24px" height="16px" viewBox="0 0 24 16" version="1.1" xmlns="http://www.w3.org/2000/svg" xmlns:xlink="http://www.w3.org/1999/xlink">
    <title>united-states</title>
    <g id="Page-1" stroke="none" stroke-width="1" fill="none" fill-rule="evenodd">
        <g id="Desktop" transform="translate(-1300.000000, -118.000000)" fill-rule="nonzero">
            <g id="Group-6" transform="translate(1157.000000, 85.000000)">
                <g id="united-states" transform="translate(143.000000, 33.000000)">
                    <path d="M22.2025781,4.76971233e-05 L1.79742187,4.76971233e-05 C0.804703125,4.76971233e-05 0,0.818864212 0,1.82899389 L0,14.1710538 C0,15.1811358 0.804703125,16 1.79742187,16 L22.2025781,16 C23.19525,16 24,15.1811835 24,14.1710538 L24,1.82899389 C24,0.818864212 23.1952969,4.76971233e-05 22.2025781,4.76971233e-05 Z" id="Path" fill="#F5F5F5"></path>
                    <g id="Group" transform="translate(0.000000, 0.000048)" fill="#FF4B55">
                        <path d="M0.098859375,1.23077657 L23.9010937,1.23077657 C23.6575312,0.514508869 22.9892812,0 22.2025781,0 L1.79742188,0 C1.01067188,0 0.34246875,0.514508869 0.098859375,1.23077657 Z" id="Path"></path>
                        <rect id="Rectangle" x="0" y="4.92301088" width="24" height="1.23072887"></rect>
                        <rect id="Rectangle" x="0" y="2.46136235" width="24" height="1.23072887"></rect>
                        <path d="M0,8.19427038 C0,8.42679386 0.185296875,8.61534059 0.4138125,8.61534059 L24,8.61534059 L24,7.38456402 L0,7.38456402 L0,8.19427038 Z" id="Path"></path>
                        <rect id="Rectangle" x="0" y="12.3079565" width="24" height="1.23077657"></rect>
                        <path d="M23.9011406,14.769128 L0.098859375,14.769128 C0.34246875,15.4853957 1.01071875,15.9999046 1.79742188,15.9999046 L22.2025781,15.9999046 C22.9893281,15.9999046 23.6575313,15.4853957 23.9011406,14.769128 Z" id="Path"></path>
                        <rect id="Rectangle" x="0" y="9.84630794" width="24" height="1.23072887"></rect>
                    </g>
                    <path d="M0.4138125,8.61538828 L10.7586562,8.61538828 C10.9871719,8.61538828 11.1724688,8.42684156 11.1724688,8.19431808 L11.1724688,0.421070204 C11.1724688,0.188499031 10.9871719,0 10.7586562,0 L1.79742187,0 C0.804703125,0 0,0.818864212 0,1.82899389 L0,8.19431808 C0,8.42688925 0.185296875,8.61538828 0.4138125,8.61538828 Z" id="Path" fill="#41479B"></path>
                    <g id="Group" transform="translate(0.668093, 0.939288)" fill="#F5F5F5">
                        <path d="M0.493891817,0.0271515874 L0.585485567,0.30665673 L0.875032442,0.308898495 C0.912532442,0.309232374 0.928048067,0.35788344 0.897907442,0.380539574 L0.664985567,0.555540319 L0.752360567,0.836428678 C0.763704317,0.872773886 0.722969942,0.902918468 0.692454317,0.880691608 L0.456907442,0.709411239 L0.221360567,0.880739305 C0.190844942,0.902966165 0.150204317,0.872821583 0.161454317,0.836476375 L0.248829317,0.555588016 L0.0159074423,0.380587271 C-0.0142331827,0.35788344 0.00128244235,0.309232374 0.0387824423,0.308946192 L0.328329317,0.306704427 L0.419923067,0.0271992845 C0.431735567,-0.00905052914 0.481985567,-0.00905052914 0.493891817,0.0271515874 Z" id="Path"></path>
                        <path d="M0.493891817,1.4892592 L0.585485567,1.76876435 L0.875032442,1.77100611 C0.912532442,1.77133999 0.928048067,1.81994336 0.897907442,1.84264719 L0.664985567,2.01769563 L0.752360567,2.29858399 C0.763704317,2.3349292 0.722969942,2.36507378 0.692454317,2.34284692 L0.456907442,2.17156655 L0.221360567,2.34289462 C0.190844942,2.36507378 0.150204317,2.3349769 0.161454317,2.29863169 L0.248829317,2.01774333 L0.0159074423,1.84269489 C-0.0142331827,1.81999106 0.00128244235,1.77138769 0.0387824423,1.77105381 L0.328329317,1.76881204 L0.419923067,1.4893069 C0.431735567,1.45310478 0.481985567,1.45310478 0.493891817,1.4892592 Z" id="Path"></path>
                        <path d="M0.493891817,2.95141452 L0.585485567,3.23091966 L0.875032442,3.23316142 C0.912532442,3.2334953 0.928048067,3.28209867 0.897907442,3.3048025 L0.664985567,3.47985095 L0.752360567,3.76073931 C0.763704317,3.79708451 0.722969942,3.8272291 0.692454317,3.80500224 L0.456907442,3.63372187 L0.221360567,3.80504993 C0.190844942,3.8272291 0.150204317,3.79717991 0.161454317,3.760787 L0.248829317,3.47989864 L0.0159074423,3.3048502 C-0.0142331827,3.28214637 0.00128244235,3.233543 0.0387824423,3.23320912 L0.328329317,3.23096736 L0.419923067,2.95146221 C0.431735567,2.9152124 0.481985567,2.9152124 0.493891817,2.95141452 Z" id="Path"></path>
                        <path d="M0.493891817,4.41352213 L0.585485567,4.69302728 L0.875032442,4.69526904 C0.912532442,4.69560292 0.928048067,4.74425399 0.897907442,4.76691012 L0.664985567,4.94195856 L0.752360567,5.22284692 C0.763704317,5.25919213 0.722969942,5.28933671 0.692454317,5.26710985 L0.456907442,5.09582948 L0.221360567,5.26715755 C0.190844942,5.28933671 0.150204317,5.25923983 0.161454317,5.22289462 L0.248829317,4.94200626 L0.0159074423,4.76695782 C-0.0142331827,4.74434938 0.00128244235,4.69565062 0.0387824423,4.69531674 L0.328329317,4.69307497 L0.419923067,4.41356983 C0.431735567,4.37732002 0.481985567,4.37732002 0.493891817,4.41352213 Z" id="Path"></path>
                        <path d="M0.493891817,5.87562975 L0.585485567,6.15513489 L0.875032442,6.15737666 C0.912532442,6.15771054 0.928048067,6.20631391 0.897907442,6.22901774 L0.664985567,6.40406618 L0.752360567,6.68495454 C0.763704317,6.72129975 0.722969942,6.75144433 0.692454317,6.72921747 L0.456907442,6.5579371 L0.221360567,6.72926517 C0.190844942,6.75144433 0.150204317,6.72134744 0.161454317,6.68500224 L0.248829317,6.40411388 L0.0159074423,6.22906543 C-0.0142331827,6.2063616 0.00128244235,6.15775824 0.0387824423,6.15742436 L0.328329317,6.15518259 L0.419923067,5.87567745 C0.431735567,5.83947533 0.481985567,5.83947533 0.493891817,5.87562975 Z" id="Path"></path>
                        <path d="M1.60918869,0.743991653 L1.70078244,1.0234968 L1.99032932,1.02573856 C2.02782932,1.02607244 2.04334494,1.07472351 2.01320432,1.09737964 L1.78028244,1.27242808 L1.86765744,1.55331644 C1.87900119,1.58966165 1.83826682,1.61980623 1.80775119,1.59757937 L1.57220432,1.4262513 L1.33665744,1.59757937 C1.30614182,1.61975853 1.26550119,1.58966165 1.27675119,1.55331644 L1.36412619,1.27242808 L1.13120432,1.09737964 C1.10106369,1.07467581 1.11657932,1.02607244 1.15407932,1.02573856 L1.44362619,1.0234968 L1.53521994,0.743991653 C1.54703244,0.707837234 1.59732932,0.707837234 1.60918869,0.743991653 Z" id="Path"></path>
                        <path d="M1.60918869,2.20614697 L1.70078244,2.48565211 L1.99032932,2.48789387 C2.02782932,2.48822775 2.04334494,2.53687882 2.01320432,2.55953495 L1.78028244,2.7345834 L1.86765744,3.01547175 C1.87900119,3.05181696 1.83826682,3.08196154 1.80775119,3.05973468 L1.57220432,2.88840662 L1.33665744,3.05973468 C1.30614182,3.08191385 1.26550119,3.05186466 1.27675119,3.01547175 L1.36412619,2.7345834 L1.13120432,2.55953495 C1.10106369,2.53692652 1.11657932,2.48822775 1.15407932,2.48789387 L1.44362619,2.48565211 L1.53521994,2.20614697 C1.54703244,2.16994485 1.59732932,2.16994485 1.60918869,2.20614697 Z" id="Path"></path>
                        <path d="M1.60918869,3.66825458 L1.70078244,3.94775973 L1.99032932,3.95000149 C2.02782932,3.95033537 2.04334494,3.99893874 2.01320432,4.02164257 L1.78028244,4.19669101 L1.86765744,4.47757937 C1.87900119,4.51392458 1.83826682,4.54406916 1.80775119,4.5218423 L1.57220432,4.35051423 L1.33665744,4.5218423 C1.30614182,4.54402146 1.26550119,4.51392458 1.27675119,4.47757937 L1.36412619,4.19669101 L1.13120432,4.02164257 C1.10106369,3.99893874 1.11657932,3.95033537 1.15407932,3.95000149 L1.44362619,3.94775973 L1.53521994,3.66825458 C1.54703244,3.63205247 1.59732932,3.63205247 1.60918869,3.66825458 Z" id="Path"></path>
                        <path d="M1.60918869,5.1303622 L1.70078244,5.40986734 L1.99032932,5.41210911 C2.02782932,5.41244299 2.04334494,5.46104636 2.01320432,5.48375019 L1.78028244,5.65879863 L1.86765744,5.93968699 C1.87900119,5.9760322 1.83826682,6.00617678 1.80775119,5.98394992 L1.57220432,5.81262185 L1.33665744,5.98394992 C1.30614182,6.00617678 1.26550119,5.9760322 1.27675119,5.93968699 L1.36412619,5.65879863 L1.13120432,5.48375019 C1.10106369,5.46104636 1.11657932,5.41244299 1.15407932,5.41210911 L1.44362619,5.40986734 L1.53521994,5.1303622 C1.54703244,5.09420778 1.59732932,5.09420778 1.60918869,5.1303622 Z" id="Path"></path>
                        <path d="M2.72448557,0.0271515874 L2.81607932,0.30665673 L3.10562619,0.308898495 C3.14312619,0.309232374 3.15864182,0.35788344 3.12850119,0.380539574 L2.89557932,0.555540319 L2.98295432,0.836428678 C2.99429807,0.872773886 2.95356369,0.902918468 2.92304807,0.880691608 L2.68750119,0.709363542 L2.45195432,0.880691608 C2.42143869,0.902918468 2.38079807,0.872773886 2.39204807,0.836428678 L2.47942307,0.555540319 L2.24650119,0.380539574 C2.21636057,0.357835743 2.23187619,0.309184677 2.26937619,0.308898495 L2.55892307,0.30665673 L2.65051682,0.0271515874 C2.66232932,-0.00905052914 2.71262619,-0.00905052914 2.72448557,0.0271515874 Z" id="Path"></path>
                        <path d="M2.72448557,1.4892592 L2.81607932,1.76876435 L3.10562619,1.77100611 C3.14312619,1.77133999 3.15864182,1.81994336 3.12850119,1.84264719 L2.89557932,2.01769563 L2.98295432,2.29858399 C2.99429807,2.3349292 2.95356369,2.36507378 2.92304807,2.34284692 L2.68750119,2.17151886 L2.45195432,2.34284692 C2.42143869,2.36502608 2.38079807,2.3349292 2.39204807,2.29858399 L2.47942307,2.01769563 L2.24650119,1.84264719 C2.21636057,1.81994336 2.23187619,1.77133999 2.26937619,1.77100611 L2.55892307,1.76876435 L2.65051682,1.4892592 C2.66232932,1.45310478 2.71262619,1.45310478 2.72448557,1.4892592 Z" id="Path"></path>
                        <path d="M2.72448557,2.95141452 L2.81607932,3.23091966 L3.10562619,3.23316142 C3.14312619,3.2334953 3.15864182,3.28209867 3.12850119,3.3048025 L2.89557932,3.47985095 L2.98295432,3.76073931 C2.99429807,3.79708451 2.95356369,3.8272291 2.92304807,3.80500224 L2.68750119,3.63367417 L2.45195432,3.80500224 C2.42143869,3.8271814 2.38079807,3.79713221 2.39204807,3.76073931 L2.47942307,3.47985095 L2.24650119,3.3048025 C2.21636057,3.28209867 2.23187619,3.2334953 2.26937619,3.23316142 L2.55892307,3.23091966 L2.65051682,2.95141452 C2.66232932,2.9152124 2.71262619,2.9152124 2.72448557,2.95141452 Z" id="Path"></path>
                        <path d="M2.72448557,4.41352213 L2.81607932,4.69302728 L3.10562619,4.69526904 C3.14312619,4.69560292 3.15864182,4.74425399 3.12850119,4.76691012 L2.89557932,4.94195856 L2.98295432,5.22284692 C2.99429807,5.25919213 2.95356369,5.28933671 2.92304807,5.26710985 L2.68750119,5.09578179 L2.45195432,5.26710985 C2.42143869,5.28928901 2.38079807,5.25919213 2.39204807,5.22284692 L2.47942307,4.94195856 L2.24650119,4.76691012 C2.21636057,4.74430168 2.23187619,4.69560292 2.26937619,4.69526904 L2.55892307,4.69302728 L2.65051682,4.41352213 C2.66232932,4.37732002 2.71262619,4.37732002 2.72448557,4.41352213 Z" id="Path"></path>
                        <path d="M2.72448557,5.87562975 L2.81607932,6.15513489 L3.10562619,6.15737666 C3.14312619,6.15771054 3.15864182,6.20631391 3.12850119,6.22901774 L2.89557932,6.40406618 L2.98295432,6.68495454 C2.99429807,6.72129975 2.95356369,6.75144433 2.92304807,6.72921747 L2.68750119,6.5578894 L2.45195432,6.72921747 C2.42143869,6.75139663 2.38079807,6.72129975 2.39204807,6.68495454 L2.47942307,6.40406618 L2.24650119,6.22901774 C2.21636057,6.20631391 2.23187619,6.15771054 2.26937619,6.15737666 L2.55892307,6.15513489 L2.65051682,5.87562975 C2.66232932,5.83947533 2.71262619,5.83947533 2.72448557,5.87562975 Z" id="Path"></path>
                        <path d="M3.83982932,0.743991653 L3.93142307,1.0234968 L4.22096994,1.02573856 C4.25846994,1.02607244 4.27398557,1.07472351 4.24384494,1.09737964 L4.01092307,1.27242808 L4.09829807,1.55331644 C4.10964182,1.58966165 4.06890744,1.61980623 4.03839182,1.59757937 L3.80284494,1.4262513 L3.56729807,1.59757937 C3.53678244,1.61975853 3.49614182,1.58966165 3.50739182,1.55331644 L3.59476682,1.27242808 L3.36184494,1.09737964 C3.33170432,1.07467581 3.34721994,1.02607244 3.38471994,1.02573856 L3.67426682,1.0234968 L3.76586057,0.743991653 C3.77762619,0.707837234 3.82796994,0.707837234 3.83982932,0.743991653 Z" id="Path"></path>
                        <path d="M3.83982932,2.20614697 L3.93142307,2.48565211 L4.22096994,2.48789387 C4.25846994,2.48822775 4.27398557,2.53687882 4.24384494,2.55953495 L4.01092307,2.7345834 L4.09829807,3.01547175 C4.10964182,3.05181696 4.06890744,3.08196154 4.03839182,3.05973468 L3.80284494,2.88840662 L3.56729807,3.05973468 C3.53678244,3.08191385 3.49614182,3.05186466 3.50739182,3.01547175 L3.59476682,2.7345834 L3.36184494,2.55953495 C3.33170432,2.53692652 3.34721994,2.48822775 3.38471994,2.48789387 L3.67426682,2.48565211 L3.76586057,2.20614697 C3.77762619,2.16994485 3.82796994,2.16994485 3.83982932,2.20614697 Z" id="Path"></path>
                        <path d="M3.83982932,3.66825458 L3.93142307,3.94775973 L4.22096994,3.95000149 C4.25846994,3.95033537 4.27398557,3.99893874 4.24384494,4.02164257 L4.01092307,4.19669101 L4.09829807,4.47757937 C4.10964182,4.51392458 4.06890744,4.54406916 4.03839182,4.5218423 L3.80284494,4.35051423 L3.56729807,4.5218423 C3.53678244,4.54402146 3.49614182,4.51392458 3.50739182,4.47757937 L3.59476682,4.19669101 L3.36184494,4.02164257 C3.33170432,3.99893874 3.34721994,3.95033537 3.38471994,3.95000149 L3.67426682,3.94775973 L3.76586057,3.66825458 C3.77762619,3.63205247 3.82796994,3.63205247 3.83982932,3.66825458 Z" id="Path"></path>
                        <path d="M3.83982932,5.1303622 L3.93142307,5.40986734 L4.22096994,5.41210911 C4.25846994,5.41244299 4.27398557,5.46104636 4.24384494,5.48375019 L4.01092307,5.65879863 L4.09829807,5.93968699 C4.10964182,5.9760322 4.06890744,6.00617678 4.03839182,5.98394992 L3.80284494,5.81262185 L3.56729807,5.98394992 C3.53678244,6.00617678 3.49614182,5.9760322 3.50739182,5.93968699 L3.59476682,5.65879863 L3.36184494,5.48375019 C3.33170432,5.46104636 3.34721994,5.41244299 3.38471994,5.41210911 L3.67426682,5.40986734 L3.76586057,5.1303622 C3.77762619,5.09420778 3.82796994,5.09420778 3.83982932,5.1303622 Z" id="Path"></path>
                        <path d="M4.95512619,0.0271515874 L5.04671994,0.30665673 L5.33626682,0.308898495 C5.37376682,0.309232374 5.38928244,0.35788344 5.35914182,0.380539574 L5.12621994,0.555540319 L5.21359494,0.836428678 C5.22493869,0.872773886 5.18420432,0.902918468 5.15368869,0.880691608 L4.91809494,0.709411239 L4.68254807,0.880739305 C4.65203244,0.902966165 4.61139182,0.872821583 4.62264182,0.836476375 L4.71001682,0.555588016 L4.47709494,0.380587271 C4.44695432,0.35788344 4.46246994,0.309232374 4.49996994,0.308946192 L4.78951682,0.306704427 L4.88111057,0.0271992845 C4.89296994,-0.00905052914 4.94326682,-0.00905052914 4.95512619,0.0271515874 Z" id="Path"></path>
                        <path d="M4.95512619,1.4892592 L5.04671994,1.76876435 L5.33626682,1.77100611 C5.37376682,1.77133999 5.38928244,1.81994336 5.35914182,1.84264719 L5.12621994,2.01769563 L5.21359494,2.29858399 C5.22493869,2.3349292 5.18420432,2.36507378 5.15368869,2.34284692 L4.91809494,2.17151886 L4.68254807,2.34284692 C4.65203244,2.36502608 4.61139182,2.3349292 4.62264182,2.29858399 L4.71001682,2.01769563 L4.47709494,1.84264719 C4.44695432,1.81994336 4.46246994,1.77133999 4.49996994,1.77100611 L4.78951682,1.76876435 L4.88111057,1.4892592 C4.89296994,1.45310478 4.94326682,1.45310478 4.95512619,1.4892592 Z" id="Path"></path>
                        <path d="M4.95512619,2.95141452 L5.04671994,3.23091966 L5.33626682,3.23316142 C5.37376682,3.2334953 5.38928244,3.28209867 5.35914182,3.3048025 L5.12621994,3.47985095 L5.21359494,3.76073931 C5.22493869,3.79708451 5.18420432,3.8272291 5.15368869,3.80500224 L4.91809494,3.63362647 L4.68254807,3.80495454 C4.65203244,3.8271337 4.61139182,3.79703682 4.62264182,3.76069161 L4.71001682,3.47980325 L4.47709494,3.30475481 C4.44695432,3.28205098 4.46246994,3.23344761 4.49996994,3.23311373 L4.78951682,3.23087196 L4.88111057,2.95136682 C4.89296994,2.9152124 4.94326682,2.9152124 4.95512619,2.95141452 Z" id="Path"></path>
                        <path d="M4.95512619,4.41352213 L5.04671994,4.69302728 L5.33626682,4.69526904 C5.37376682,4.69560292 5.38928244,4.74425399 5.35914182,4.76691012 L5.12621994,4.94195856 L5.21359494,5.22284692 C5.22493869,5.25919213 5.18420432,5.28933671 5.15368869,5.26710985 L4.91809494,5.09578179 L4.68254807,5.26710985 C4.65203244,5.28928901 4.61139182,5.25919213 4.62264182,5.22284692 L4.71001682,4.94195856 L4.47709494,4.76691012 C4.44695432,4.74430168 4.46246994,4.69560292 4.49996994,4.69526904 L4.78951682,4.69302728 L4.88111057,4.41352213 C4.89296994,4.37732002 4.94326682,4.37732002 4.95512619,4.41352213 Z" id="Path"></path>
                        <path d="M4.95512619,5.87562975 L5.04671994,6.15513489 L5.33626682,6.15737666 C5.37376682,6.15771054 5.38928244,6.20631391 5.35914182,6.22901774 L5.12621994,6.40406618 L5.21359494,6.68495454 C5.22493869,6.72129975 5.18420432,6.75144433 5.15368869,6.72921747 L4.91809494,6.5578894 L4.68254807,6.72921747 C4.65203244,6.75139663 4.61139182,6.72129975 4.62264182,6.68495454 L4.71001682,6.40406618 L4.47709494,6.22901774 C4.44695432,6.20631391 4.46246994,6.15771054 4.49996994,6.15737666 L4.78951682,6.15513489 L4.88111057,5.87562975 C4.89296994,5.83947533 4.94326682,5.83947533 4.95512619,5.87562975 Z" id="Path"></path>
                        <path d="M6.07042307,0.743991653 L6.16201682,1.0234968 L6.45156369,1.02573856 C6.48906369,1.02607244 6.50457932,1.07472351 6.47443869,1.09737964 L6.24151682,1.27242808 L6.32889182,1.55331644 C6.34023557,1.58966165 6.29950119,1.61980623 6.26898557,1.59757937 L6.03343869,1.4262513 L5.79789182,1.59757937 C5.76737619,1.61975853 5.72673557,1.58966165 5.73798557,1.55331644 L5.82536057,1.27242808 L5.59243869,1.09737964 C5.56229807,1.07467581 5.57781369,1.02607244 5.61531369,1.02573856 L5.90486057,1.0234968 L5.99645432,0.743991653 C6.00831369,0.707837234 6.05856369,0.707837234 6.07042307,0.743991653 Z" id="Path"></path>
                        <path d="M6.07042307,2.20614697 L6.16201682,2.48565211 L6.45156369,2.48789387 C6.48906369,2.48822775 6.50457932,2.53687882 6.47443869,2.55953495 L6.24151682,2.7345834 L6.32889182,3.01547175 C6.34023557,3.05181696 6.29950119,3.08196154 6.26898557,3.05973468 L6.03343869,2.88840662 L5.79789182,3.05973468 C5.76737619,3.08191385 5.72673557,3.05186466 5.73798557,3.01547175 L5.82536057,2.7345834 L5.59243869,2.55953495 C5.56229807,2.53692652 5.57781369,2.48822775 5.61531369,2.48789387 L5.90486057,2.48565211 L5.99645432,2.20614697 C6.00831369,2.16994485 6.05856369,2.16994485 6.07042307,2.20614697 Z" id="Path"></path>
                        <path d="M6.07042307,3.66825458 L6.16201682,3.94775973 L6.45156369,3.95000149 C6.48906369,3.95033537 6.50457932,3.99893874 6.47443869,4.02164257 L6.24151682,4.19669101 L6.32889182,4.47757937 C6.34023557,4.51392458 6.29950119,4.54406916 6.26898557,4.5218423 L6.03343869,4.35051423 L5.79789182,4.5218423 C5.76737619,4.54402146 5.72673557,4.51392458 5.73798557,4.47757937 L5.82536057,4.19669101 L5.59243869,4.02164257 C5.56229807,3.99893874 5.57781369,3.95033537 5.61531369,3.95000149 L5.90486057,3.94775973 L5.99645432,3.66825458 C6.00831369,3.63205247 6.05856369,3.63205247 6.07042307,3.66825458 Z" id="Path"></path>
                        <path d="M6.07042307,5.1303622 L6.16201682,5.40986734 L6.45156369,5.41210911 C6.48906369,5.41244299 6.50457932,5.46104636 6.47443869,5.48375019 L6.24151682,5.65879863 L6.32889182,5.93968699 C6.34023557,5.9760322 6.29950119,6.00617678 6.26898557,5.98394992 L6.03343869,5.81262185 L5.79789182,5.98394992 C5.76737619,6.00617678 5.72673557,5.9760322 5.73798557,5.93968699 L5.82536057,5.65879863 L5.59243869,5.48375019 C5.56229807,5.46104636 5.57781369,5.41244299 5.61531369,5.41210911 L5.90486057,5.40986734 L5.99645432,5.1303622 C6.00831369,5.09420778 6.05856369,5.09420778 6.07042307,5.1303622 Z" id="Path"></path>
                        <path d="M7.18576682,0.0271515874 L7.27736057,0.30665673 L7.56690744,0.308898495 C7.60440744,0.309232374 7.61992307,0.35788344 7.58978244,0.380539574 L7.35686057,0.555540319 L7.44423557,0.836428678 C7.45557932,0.872773886 7.41484494,0.902918468 7.38432932,0.880691608 L7.14878244,0.709363542 L6.91323557,0.880691608 C6.88271994,0.902918468 6.84207932,0.872773886 6.85332932,0.836428678 L6.94070432,0.555540319 L6.70778244,0.380539574 C6.67764182,0.357835743 6.69315744,0.309184677 6.73065744,0.308898495 L7.02020432,0.30665673 L7.11179807,0.0271515874 C7.12356369,-0.00905052914 7.17390744,-0.00905052914 7.18576682,0.0271515874 Z" id="Path"></path>
                        <path d="M7.18576682,1.4892592 L7.27736057,1.76876435 L7.56690744,1.77100611 C7.60440744,1.77133999 7.61992307,1.81994336 7.58978244,1.84264719 L7.35686057,2.01769563 L7.44423557,2.29858399 C7.45557932,2.3349292 7.41484494,2.36507378 7.38432932,2.34284692 L7.14878244,2.17151886 L6.91323557,2.34284692 C6.88271994,2.36502608 6.84207932,2.3349292 6.85332932,2.29858399 L6.94070432,2.01769563 L6.70778244,1.84264719 C6.67764182,1.81994336 6.69315744,1.77133999 6.73065744,1.77100611 L7.02020432,1.76876435 L7.11179807,1.4892592 C7.12356369,1.45310478 7.17390744,1.45310478 7.18576682,1.4892592 Z" id="Path"></path>
                        <path d="M7.18576682,2.95141452 L7.27736057,3.23091966 L7.56690744,3.23316142 C7.60440744,3.2334953 7.61992307,3.28209867 7.58978244,3.3048025 L7.35686057,3.47985095 L7.44423557,3.76073931 C7.45557932,3.79708451 7.41484494,3.8272291 7.38432932,3.80500224 L7.14878244,3.63367417 L6.91323557,3.80500224 C6.88271994,3.8271814 6.84207932,3.79713221 6.85332932,3.76073931 L6.94070432,3.47985095 L6.70778244,3.3048025 C6.67764182,3.28209867 6.69315744,3.2334953 6.73065744,3.23316142 L7.02020432,3.23091966 L7.11179807,2.95141452 C7.12356369,2.9152124 7.17390744,2.9152124 7.18576682,2.95141452 Z" id="Path"></path>
                        <path d="M7.18576682,4.41352213 L7.27736057,4.69302728 L7.56690744,4.69526904 C7.60440744,4.69560292 7.61992307,4.74425399 7.58978244,4.76691012 L7.35686057,4.94195856 L7.44423557,5.22284692 C7.45557932,5.25919213 7.41484494,5.28933671 7.38432932,5.26710985 L7.14878244,5.09578179 L6.91323557,5.26710985 C6.88271994,5.28928901 6.84207932,5.25919213 6.85332932,5.22284692 L6.94070432,4.94195856 L6.70778244,4.76691012 C6.67764182,4.74430168 6.69315744,4.69560292 6.73065744,4.69526904 L7.02020432,4.69302728 L7.11179807,4.41352213 C7.12356369,4.37732002 7.17390744,4.37732002 7.18576682,4.41352213 Z" id="Path"></path>
                        <path d="M7.18576682,5.87562975 L7.27736057,6.15513489 L7.56690744,6.15737666 C7.60440744,6.15771054 7.61992307,6.20631391 7.58978244,6.22901774 L7.35686057,6.40406618 L7.44423557,6.68495454 C7.45557932,6.72129975 7.41484494,6.75144433 7.38432932,6.72921747 L7.14878244,6.5578894 L6.91323557,6.72921747 C6.88271994,6.75139663 6.84207932,6.72129975 6.85332932,6.68495454 L6.94070432,6.40406618 L6.70778244,6.22901774 C6.67764182,6.20631391 6.69315744,6.15771054 6.73065744,6.15737666 L7.02020432,6.15513489 L7.11179807,5.87562975 C7.12356369,5.83947533 7.17390744,5.83947533 7.18576682,5.87562975 Z" id="Path"></path>
                        <path d="M8.30106369,0.743991653 L8.39265744,1.0234968 L8.68220432,1.02573856 C8.71970432,1.02607244 8.73521994,1.07472351 8.70507932,1.09737964 L8.47215744,1.27242808 L8.55953244,1.55331644 C8.57087619,1.58966165 8.53014182,1.61980623 8.49962619,1.59757937 L8.26407932,1.4262513 L8.02853244,1.59757937 C7.99801682,1.61975853 7.95737619,1.58966165 7.96862619,1.55331644 L8.05600119,1.27242808 L7.82307932,1.09737964 C7.79293869,1.07467581 7.80845432,1.02607244 7.84595432,1.02573856 L8.13550119,1.0234968 L8.22709494,0.743991653 C8.23890744,0.707837234 8.28920432,0.707837234 8.30106369,0.743991653 Z" id="Path"></path>
                        <path d="M8.30106369,2.20614697 L8.39265744,2.48565211 L8.68220432,2.48789387 C8.71970432,2.48822775 8.73521994,2.53687882 8.70507932,2.55953495 L8.47215744,2.7345834 L8.55953244,3.01547175 C8.57087619,3.05181696 8.53014182,3.08196154 8.49962619,3.05973468 L8.26407932,2.88840662 L8.02853244,3.05973468 C7.99801682,3.08191385 7.95737619,3.05186466 7.96862619,3.01547175 L8.05600119,2.7345834 L7.82307932,2.55953495 C7.79293869,2.53692652 7.80845432,2.48822775 7.84595432,2.48789387 L8.13550119,2.48565211 L8.22709494,2.20614697 C8.23890744,2.16994485 8.28920432,2.16994485 8.30106369,2.20614697 Z" id="Path"></path>
                        <path d="M8.30106369,3.66825458 L8.39265744,3.94775973 L8.68220432,3.95000149 C8.71970432,3.95033537 8.73521994,3.99893874 8.70507932,4.02164257 L8.47215744,4.19669101 L8.55953244,4.47757937 C8.57087619,4.51392458 8.53014182,4.54406916 8.49962619,4.5218423 L8.26407932,4.35051423 L8.02853244,4.5218423 C7.99801682,4.54402146 7.95737619,4.51392458 7.96862619,4.47757937 L8.05600119,4.19669101 L7.82307932,4.02164257 C7.79293869,3.99893874 7.80845432,3.95033537 7.84595432,3.95000149 L8.13550119,3.94775973 L8.22709494,3.66825458 C8.23890744,3.63205247 8.28920432,3.63205247 8.30106369,3.66825458 Z" id="Path"></path>
                        <path d="M8.30106369,5.1303622 L8.39265744,5.40986734 L8.68220432,5.41210911 C8.71970432,5.41244299 8.73521994,5.46104636 8.70507932,5.48375019 L8.47215744,5.65879863 L8.55953244,5.93968699 C8.57087619,5.9760322 8.53014182,6.00617678 8.49962619,5.98394992 L8.26407932,5.81262185 L8.02853244,5.98394992 C7.99801682,6.00617678 7.95737619,5.9760322 7.96862619,5.93968699 L8.05600119,5.65879863 L7.82307932,5.48375019 C7.79293869,5.46104636 7.80845432,5.41244299 7.84595432,5.41210911 L8.13550119,5.40986734 L8.22709494,5.1303622 C8.23890744,5.09420778 8.28920432,5.09420778 8.30106369,5.1303622 Z" id="Path"></path>
                        <path d="M9.41640744,0.0271515874 L9.50800119,0.30665673 L9.79754807,0.308898495 C9.83504807,0.309232374 9.85056369,0.35788344 9.82042307,0.380539574 L9.58750119,0.555540319 L9.67487619,0.836428678 C9.68621994,0.872773886 9.64548557,0.902918468 9.61496994,0.880691608 L9.37942307,0.709363542 L9.14387619,0.880691608 C9.11336057,0.902918468 9.07271994,0.872773886 9.08396994,0.836428678 L9.17134494,0.555540319 L8.93842307,0.380539574 C8.90828244,0.357835743 8.92379807,0.309184677 8.96129807,0.308898495 L9.25084494,0.30665673 L9.34243869,0.0271515874 C9.35425119,-0.00905052914 9.40450119,-0.00905052914 9.41640744,0.0271515874 Z" id="Path"></path>
                        <path d="M9.41640744,1.4892592 L9.50800119,1.76876435 L9.79754807,1.77100611 C9.83504807,1.77133999 9.85056369,1.81994336 9.82042307,1.84264719 L9.58750119,2.01769563 L9.67487619,2.29858399 C9.68621994,2.3349292 9.64548557,2.36507378 9.61496994,2.34284692 L9.37942307,2.17151886 L9.14387619,2.34284692 C9.11336057,2.36502608 9.07271994,2.3349292 9.08396994,2.29858399 L9.17134494,2.01769563 L8.93842307,1.84264719 C8.90828244,1.81994336 8.92379807,1.77133999 8.96129807,1.77100611 L9.25084494,1.76876435 L9.34243869,1.4892592 C9.35425119,1.45310478 9.40450119,1.45310478 9.41640744,1.4892592 Z" id="Path"></path>
                        <path d="M9.41640744,2.95141452 L9.50800119,3.23091966 L9.79754807,3.23316142 C9.83504807,3.2334953 9.85056369,3.28209867 9.82042307,3.3048025 L9.58750119,3.47985095 L9.67487619,3.76073931 C9.68621994,3.79708451 9.64548557,3.8272291 9.61496994,3.80500224 L9.37942307,3.63367417 L9.14387619,3.80500224 C9.11336057,3.8271814 9.07271994,3.79713221 9.08396994,3.76073931 L9.17134494,3.47985095 L8.93842307,3.3048025 C8.90828244,3.28209867 8.92379807,3.2334953 8.96129807,3.23316142 L9.25084494,3.23091966 L9.34243869,2.95141452 C9.35425119,2.9152124 9.40450119,2.9152124 9.41640744,2.95141452 Z" id="Path"></path>
                        <path d="M9.41640744,4.41352213 L9.50800119,4.69302728 L9.79754807,4.69526904 C9.83504807,4.69560292 9.85056369,4.74425399 9.82042307,4.76691012 L9.58750119,4.94195856 L9.67487619,5.22284692 C9.68621994,5.25919213 9.64548557,5.28933671 9.61496994,5.26710985 L9.37942307,5.09578179 L9.14387619,5.26710985 C9.11336057,5.28928901 9.07271994,5.25919213 9.08396994,5.22284692 L9.17134494,4.94195856 L8.93842307,4.76691012 C8.90828244,4.74430168 8.92379807,4.69560292 8.96129807,4.69526904 L9.25084494,4.69302728 L9.34243869,4.41352213 C9.35425119,4.37732002 9.40450119,4.37732002 9.41640744,4.41352213 Z" id="Path"></path>
                        <path d="M9.41640744,5.87562975 L9.50800119,6.15513489 L9.79754807,6.15737666 C9.83504807,6.15771054 9.85056369,6.20631391 9.82042307,6.22901774 L9.58750119,6.40406618 L9.67487619,6.68495454 C9.68621994,6.72129975 9.64548557,6.75144433 9.61496994,6.72921747 L9.37942307,6.5578894 L9.14387619,6.72921747 C9.11336057,6.75139663 9.07271994,6.72129975 9.08396994,6.68495454 L9.17134494,6.40406618 L8.93842307,6.22901774 C8.90828244,6.20631391 8.92379807,6.15771054 8.96129807,6.15737666 L9.25084494,6.15513489 L9.34243869,5.87562975 C9.35425119,5.83947533 9.40450119,5.83947533 9.41640744,5.87562975 Z" id="Path"></path>
                    </g>
                </g>
            </g>
        </g>
    </g>
</svg>