<?xml version="1.0" encoding="UTF-8"?>
<svg width="161px" height="52px" viewBox="0 0 161 52" version="1.1" xmlns="http://www.w3.org/2000/svg" xmlns:xlink="http://www.w3.org/1999/xlink">
    <title>Group 4</title>
    <g id="Page-1" stroke="none" stroke-width="1" fill="none" fill-rule="evenodd">
        <g id="Desktop" transform="translate(-50.000000, -9.000000)">
            <g id="Group-4" transform="translate(50.000000, 9.000000)">
                <path d="M5.488,39.744 L6.692,39.744 C8.07333333,39.744 9.06266667,39.5666667 9.66,39.212 C10.2573333,38.8573333 10.556,38.288 10.556,37.504 C10.556,36.72 10.2573333,36.1506667 9.66,35.796 C9.06266667,35.4413333 8.07333333,35.264 6.692,35.264 L5.488,35.264 L5.488,39.744 Z M5.488,31.176 L6.496,31.176 C8.21333333,31.176 9.072,30.4946667 9.072,29.132 C9.072,27.7693333 8.21333333,27.088 6.496,27.088 L5.488,27.088 L5.488,31.176 Z M3,22.888 L8.176,22.888 L8.176,22.888 C10.1173333,22.888 11.592,23.3546667 12.6,24.288 C13.608,25.2213333 14.112,26.5653333 14.112,28.32 C14.112,29.384 13.9206667,30.266 13.538,30.966 C13.1553333,31.666 12.572,32.2586667 11.788,32.744 C12.572,32.8933333 13.2393333,33.122 13.79,33.43 C14.3406667,33.738 14.7886667,34.116 15.134,34.564 C15.4793333,35.012 15.7266667,35.516 15.876,36.076 C16.0253333,36.636 16.1,37.2333333 16.1,37.868 C16.1,38.8573333 15.9273333,39.7346667 15.582,40.5 C15.2366667,41.2653333 14.7513333,41.9093333 14.126,42.432 C13.5006667,42.9546667 12.74,43.3466667 11.844,43.608 C10.948,43.8693333 9.94,44 8.82,44 L3,44 C1.34314575,44 2.02906125e-16,42.6568542 0,41 L0,25.888 C-2.02906125e-16,24.2311458 1.34314575,22.888 3,22.888 Z" id="Shape" fill="#4B8F74" fill-rule="nonzero"></path>
                <path d="M23.968,32.17 L23.968,37.728 L23.968,37.728 C23.968,39.5013333 24.8266667,40.388 26.544,40.388 C28.2613333,40.388 29.12,39.5013333 29.12,37.728 L29.12,32.17 C29.12,30.7705104 30.2545104,29.636 31.654,29.636 C33.0534896,29.636 34.188,30.7705104 34.188,32.17 L34.188,38.708 L34.188,38.708 C34.188,40.6493333 33.5486667,42.1053333 32.27,43.076 C30.9913333,44.0466667 29.0826667,44.532 26.544,44.532 C24.0053333,44.532 22.0966667,44.0466667 20.818,43.076 C19.5393333,42.1053333 18.9,40.6493333 18.9,38.708 L18.9,32.17 C18.9,30.7705104 20.0345104,29.636 21.434,29.636 C22.8334896,29.636 23.968,30.7705104 23.968,32.17 Z" id="Path" fill="#4B8F74" fill-rule="nonzero"></path>
                <path d="M48.132,34.732 C47.964,34.0226667 47.6186667,33.4533333 47.096,33.024 C46.5733333,32.5946667 45.9386667,32.38 45.192,32.38 C44.408,32.38 43.7686667,32.5853333 43.274,32.996 C42.7793333,33.4066667 42.4666667,33.9853333 42.336,34.732 L48.132,34.732 Z M42.196,37.672 C42.196,39.856 43.2226667,40.948 45.276,40.948 C46.3773333,40.948 47.208,40.5 47.768,39.604 L52.668,39.604 C51.6786667,42.8893333 49.2053333,44.532 45.248,44.532 C44.0346667,44.532 42.924,44.35 41.916,43.986 C40.908,43.622 40.0446667,43.104 39.326,42.432 C38.6073333,41.76 38.052,40.9573333 37.66,40.024 C37.268,39.0906667 37.072,38.0453333 37.072,36.888 C37.072,35.6933333 37.2586667,34.6153333 37.632,33.654 C38.0053333,32.6926667 38.5373333,31.876 39.228,31.204 C39.9186667,30.532 40.754,30.014 41.734,29.65 C42.714,29.286 43.82,29.104 45.052,29.104 C46.2653333,29.104 47.3573333,29.286 48.328,29.65 C49.2986667,30.014 50.12,30.5413333 50.792,31.232 C51.464,31.9226667 51.9773333,32.7673333 52.332,33.766 C52.6866667,34.7646667 52.864,35.8893333 52.864,37.14 L52.864,37.672 L42.196,37.672 Z" id="Shape" fill="#4B8F74" fill-rule="nonzero"></path>
                <path d="M58.282,29.636 L58.996,29.636 C60.0011582,29.636 60.816,30.4508418 60.816,31.456 L60.816,31.456 L60.816,31.456 C61.5066667,30.616 62.2066667,30.0513333 62.916,29.762 C63.6253333,29.4726667 64.456,29.328 65.408,29.328 C66.416,29.328 67.2793333,29.4913333 67.998,29.818 C68.7166667,30.1446667 69.328,30.6066667 69.832,31.204 C70.2426667,31.6893333 70.5226667,32.2306667 70.672,32.828 C70.8213333,33.4253333 70.896,34.1066667 70.896,34.872 L70.896,41.466 C70.896,42.8654896 69.7614896,44 68.362,44 C66.9625104,44 65.828,42.8654896 65.828,41.466 L65.828,36.748 L65.828,36.748 C65.828,36.0386667 65.7766667,35.4646667 65.674,35.026 C65.5713333,34.5873333 65.3893333,34.2373333 65.128,33.976 C64.904,33.752 64.652,33.5933333 64.372,33.5 C64.092,33.4066667 63.7933333,33.36 63.476,33.36 C62.6173333,33.36 61.9593333,33.6166667 61.502,34.13 C61.0446667,34.6433333 60.816,35.376 60.816,36.328 L60.816,41.466 C60.816,42.8654896 59.6814896,44 58.282,44 C56.8825104,44 55.748,42.8654896 55.748,41.466 L55.748,32.17 C55.748,30.7705104 56.8825104,29.636 58.282,29.636 Z" id="Path" fill="#4B8F74" fill-rule="nonzero"></path>
                <path d="M114.076,32.17 L114.076,41.466 C114.076,42.8654896 112.94149,44 111.542,44 C110.14251,44 109.008,42.8654896 109.008,41.466 L109.008,32.17 C109.008,30.7705104 110.14251,29.636 111.542,29.636 C112.94149,29.636 114.076,30.7705104 114.076,32.17 Z M108.672,24.12 C108.672,23.728 108.746667,23.3593333 108.896,23.014 C109.045333,22.6686667 109.250667,22.3653333 109.512,22.104 C109.773333,21.8426667 110.076667,21.6373333 110.422,21.488 C110.767333,21.3386667 111.136,21.264 111.528,21.264 C111.92,21.264 112.288667,21.3386667 112.634,21.488 C112.979333,21.6373333 113.282667,21.8426667 113.544,22.104 C113.805333,22.3653333 114.010667,22.6686667 114.16,23.014 C114.309333,23.3593333 114.384,23.728 114.384,24.12 C114.384,24.512 114.309333,24.8806667 114.16,25.226 C114.010667,25.5713333 113.805333,25.8746667 113.544,26.136 C113.282667,26.3973333 112.979333,26.6026667 112.634,26.752 C112.288667,26.9013333 111.92,26.976 111.528,26.976 C111.136,26.976 110.767333,26.9013333 110.422,26.752 C110.076667,26.6026667 109.773333,26.3973333 109.512,26.136 C109.250667,25.8746667 109.045333,25.5713333 108.896,25.226 C108.746667,24.8806667 108.672,24.512 108.672,24.12 Z" id="Shape" fill="#4B8F74" fill-rule="nonzero"></path>
                <path d="M122.252,36.776 C122.252,37.2426667 122.336,37.6766667 122.504,38.078 C122.672,38.4793333 122.900667,38.8293333 123.19,39.128 C123.479333,39.4266667 123.824667,39.66 124.226,39.828 C124.627333,39.996 125.061333,40.08 125.528,40.08 C125.976,40.08 126.400667,39.996 126.802,39.828 C127.203333,39.66 127.548667,39.4266667 127.838,39.128 C128.127333,38.8293333 128.360667,38.484 128.538,38.092 C128.715333,37.7 128.804,37.28 128.804,36.832 C128.804,36.384 128.715333,35.9593333 128.538,35.558 C128.360667,35.1566667 128.127333,34.8066667 127.838,34.508 C127.548667,34.2093333 127.203333,33.976 126.802,33.808 C126.400667,33.64 125.976,33.556 125.528,33.556 C125.061333,33.556 124.627333,33.64 124.226,33.808 C123.824667,33.976 123.479333,34.2093333 123.19,34.508 C122.900667,34.8066667 122.672,35.1473333 122.504,35.53 C122.336,35.9126667 122.252,36.328 122.252,36.776 Z M130.064,29.636 L131.184,29.636 C132.591222,29.636 133.732,30.7767785 133.732,32.184 L133.732,41.452 C133.732,42.8592215 132.591222,44 131.184,44 L130.232,44 C129.350554,44 128.636,43.2854465 128.636,42.404 L128.636,42.404 L128.636,42.404 C127.553333,43.7666667 126.088,44.448 124.24,44.448 C123.194667,44.448 122.233333,44.2566667 121.356,43.874 C120.478667,43.4913333 119.713333,42.9546667 119.06,42.264 C118.406667,41.5733333 117.898,40.7613333 117.534,39.828 C117.17,38.8946667 116.988,37.8773333 116.988,36.776 C116.988,35.7493333 117.165333,34.774 117.52,33.85 C117.874667,32.926 118.369333,32.1186667 119.004,31.428 C119.638667,30.7373333 120.394667,30.1913333 121.272,29.79 C122.149333,29.3886667 123.12,29.188 124.184,29.188 C125.976,29.188 127.46,29.8133333 128.636,31.064 C128.636,30.2753374 129.275337,29.636 130.064,29.636 Z" id="Shape" fill="#4B8F74" fill-rule="nonzero"></path>
                <path d="M142.244,32.17 L142.244,48.634 C142.244,50.0334896 141.10949,51.168 139.71,51.168 C138.31051,51.168 137.176,50.0334896 137.176,48.634 L137.176,32.17 C137.176,30.7705104 138.31051,29.636 139.71,29.636 C141.10949,29.636 142.244,30.7705104 142.244,32.17 Z M136.84,24.12 C136.84,23.728 136.914667,23.3593333 137.064,23.014 C137.213333,22.6686667 137.418667,22.3653333 137.68,22.104 C137.941333,21.8426667 138.244667,21.6373333 138.59,21.488 C138.935333,21.3386667 139.304,21.264 139.696,21.264 C140.088,21.264 140.456667,21.3386667 140.802,21.488 C141.147333,21.6373333 141.450667,21.8426667 141.712,22.104 C141.973333,22.3653333 142.178667,22.6686667 142.328,23.014 C142.477333,23.3593333 142.552,23.728 142.552,24.12 C142.552,24.512 142.477333,24.8806667 142.328,25.226 C142.178667,25.5713333 141.973333,25.8746667 141.712,26.136 C141.450667,26.3973333 141.147333,26.6026667 140.802,26.752 C140.456667,26.9013333 140.088,26.976 139.696,26.976 C139.304,26.976 138.935333,26.9013333 138.59,26.752 C138.244667,26.6026667 137.941333,26.3973333 137.68,26.136 C137.418667,25.8746667 137.213333,25.5713333 137.064,25.226 C136.914667,24.8806667 136.84,24.512 136.84,24.12 Z" id="Shape" fill="#4B8F74" fill-rule="nonzero"></path>
                <path d="M156.216,34.732 C156.048,34.0226667 155.702667,33.4533333 155.18,33.024 C154.657333,32.5946667 154.022667,32.38 153.276,32.38 C152.492,32.38 151.852667,32.5853333 151.358,32.996 C150.863333,33.4066667 150.550667,33.9853333 150.42,34.732 L156.216,34.732 Z M150.28,37.672 C150.28,39.856 151.306667,40.948 153.36,40.948 C154.461333,40.948 155.292,40.5 155.852,39.604 L160.752,39.604 C159.762667,42.8893333 157.289333,44.532 153.332,44.532 C152.118667,44.532 151.008,44.35 150,43.986 C148.992,43.622 148.128667,43.104 147.41,42.432 C146.691333,41.76 146.136,40.9573333 145.744,40.024 C145.352,39.0906667 145.156,38.0453333 145.156,36.888 C145.156,35.6933333 145.342667,34.6153333 145.716,33.654 C146.089333,32.6926667 146.621333,31.876 147.312,31.204 C148.002667,30.532 148.838,30.014 149.818,29.65 C150.798,29.286 151.904,29.104 153.136,29.104 C154.349333,29.104 155.441333,29.286 156.412,29.65 C157.382667,30.014 158.204,30.5413333 158.876,31.232 C159.548,31.9226667 160.061333,32.7673333 160.416,33.766 C160.770667,34.7646667 160.948,35.8893333 160.948,37.14 L160.948,37.672 L150.28,37.672 Z" id="Shape" fill="#4B8F74" fill-rule="nonzero"></path>
                <path d="M95.1532135,15.723673 L107.455844,41.6958927 C108.165121,43.1932545 107.526251,44.9820885 106.028889,45.6913652 C105.335087,46.0200087 104.541693,46.0701655 103.812026,45.8315109 L92.442,42.1126761 L92.442,42.1126761 L81.0719738,45.8315109 C79.4972116,46.346574 77.8030735,45.4875181 77.2880104,43.9127559 C77.0493558,43.1830895 77.0995126,42.3896955 77.4281561,41.6958927 L89.7307865,15.723673 C90.4400632,14.2263111 92.2288972,13.5874418 93.726259,14.2967185 C94.3524183,14.5933203 94.8566118,15.0975137 95.1532135,15.723673 Z" id="Triangle" fill="#FFA75B" transform="translate(92.442000, 29.000000) scale(1, -1) translate(-92.442000, -29.000000) "></path>
                <g id="Group-3" transform="translate(83.442000, 0.000000)" fill="#FFA75B" fill-rule="nonzero">
                    <path d="M17,0 C17.5271809,0 17.9590826,0.435086456 17.9972571,0.986950371 L18,1.06654811 L18,9.93345189 C18,10.5224901 17.5522847,11 17,11 C16.4728191,11 16.0409174,10.5649135 16.0027429,10.0130496 L16,9.93345189 L16,1.06654811 C16,0.477509852 16.4477153,0 17,0 Z" id="Path-3-Copy-2"></path>
                    <path d="M1,0 C1.5271809,0 1.95908256,0.435086456 1.99725713,0.986950371 L2,1.06654811 L2,9.93345189 C2,10.5224901 1.55228475,11 1,11 C0.472819102,11 0.0409174391,10.5649135 0.00274286822,10.0130496 L0,9.93345189 L0,1.06654811 C0,0.477509852 0.44771525,0 1,0 Z" id="Path-3-Copy-4"></path>
                    <path d="M9,2 C9.5271809,2 9.95908256,2.43508646 9.99725713,2.98695037 L10,3.06654811 L10,11.9334519 C10,12.5224901 9.55228475,13 9,13 C8.4728191,13 8.04091744,12.5649135 8.00274287,12.0130496 L8,11.9334519 L8,3.06654811 C8,2.47750985 8.44771525,2 9,2 Z" id="Path-3-Copy-3"></path>
                </g>
            </g>
        </g>
    </g>
</svg>