<?xml version="1.0" encoding="UTF-8"?>
<svg width="144px" height="153px" viewBox="0 0 144 153" version="1.1" xmlns="http://www.w3.org/2000/svg" xmlns:xlink="http://www.w3.org/1999/xlink">
    <title>Group 5</title>
    <g id="Artboard" stroke="none" stroke-width="1" fill="none" fill-rule="evenodd">
        <g id="Desktop" transform="translate(-418.000000, -142.000000)">
            <g id="Group-2" transform="translate(0.000000, 82.160000)">
                <g id="Group-5" transform="translate(419.120000, 60.625265)">
                    <path d="M0,151.360899 C40.2712689,139.79679 60.4069034,118.201402 60.4069034,86.5747348 C60.4069034,39.1347348 26.2,10.5347348 10,28.2147348 C-6.2,45.8947348 18.3883137,56.9547348 84.7457868,44.0847348" id="Path-2" stroke="#4B8F74" stroke-dasharray="5"></path>
                    <g id="Group" transform="translate(111.083270, 28.697761) rotate(59.000000) translate(-111.083270, -28.697761) translate(93.083270, 2.935103)" fill="#4B8F74">
                        <path d="M20.7112135,5.72367298 L33.0138439,31.6958927 C33.7231206,33.1932545 33.0842513,34.9820885 31.5868894,35.6913652 C30.8930865,36.0200087 30.0996925,36.0701655 29.3700262,35.8315109 L18,32.1126761 L18,32.1126761 L6.62997382,35.8315109 C5.0552116,36.346574 3.36107348,35.4875181 2.8460104,33.9127559 C2.60735584,33.1830895 2.65751264,32.3896955 2.98615611,31.6958927 L15.2887865,5.72367298 C15.9980632,4.2263111 17.7868972,3.58744182 19.284259,4.2967185 C19.9104183,4.59332026 20.4146118,5.0975137 20.7112135,5.72367298 Z" id="Triangle"></path>
                        <path d="M13.6957211,39.9141444 C13.9672394,40.3660267 13.8167433,40.9603247 13.3633649,41.2772777 L13.296549,41.3206246 L5.69612906,45.8874177 C5.19122473,46.1907948 4.5513285,46.0529637 4.26688083,45.5795633 C3.99536259,45.127681 4.14585867,44.533383 4.59923702,44.21643 L4.66605291,44.1730831 L12.2664729,39.60629 C12.7713772,39.3029129 13.4112735,39.440744 13.6957211,39.9141444 Z" id="Path-3" fill-rule="nonzero" transform="translate(8.981301, 42.746854) rotate(-59.000000) translate(-8.981301, -42.746854) "></path>
                        <path d="M22.440303,42.8351525 C22.7118212,43.2870347 22.5613251,43.8813328 22.1079468,44.1982857 L22.0411309,44.2416327 L14.4407109,48.8084258 C13.9358066,49.1118029 13.2959104,48.9739718 13.0114627,48.5005713 C12.7399444,48.0486891 12.8904405,47.454391 13.3438189,47.1374381 L13.4106348,47.0940912 L21.0110548,42.5272981 C21.5159591,42.223921 22.1558553,42.3617521 22.440303,42.8351525 Z" id="Path-3-Copy" fill-rule="nonzero" transform="translate(17.725883, 45.667862) rotate(-59.000000) translate(-17.725883, -45.667862) "></path>
                        <path d="M26.4741532,37.2579193 C27.0013341,37.2579193 27.4332357,37.6930057 27.4714103,38.2448696 L27.4741532,38.3244674 L27.4741532,47.1913712 C27.4741532,47.7804094 27.0264379,48.2579193 26.4741532,48.2579193 C25.9469723,48.2579193 25.5150706,47.8228328 25.476896,47.2709689 L25.4741532,47.1913712 L25.4741532,38.3244674 C25.4741532,37.7354291 25.9218684,37.2579193 26.4741532,37.2579193 Z" id="Path-3-Copy-2" fill-rule="nonzero"></path>
                    </g>
                </g>
            </g>
        </g>
    </g>
</svg>